<svg width="357" height="282" viewBox="0 0 357 282" fill="none" xmlns="http://www.w3.org/2000/svg">
<path d="M354.517 98.6874C356.733 102.797 357.357 107.549 356.25 111.908C355.144 116.267 352.399 119.878 348.613 121.954L59.1045 279.287C55.3067 281.351 50.7779 281.699 46.514 280.254C42.2506 278.81 38.6015 275.692 36.3697 271.585C34.1379 267.478 33.5062 262.72 34.6137 258.357C35.7208 253.993 38.4766 250.382 42.2744 248.318L103.289 215.16C107.087 213.096 109.843 209.485 110.949 205.122C112.057 200.758 111.426 196 109.194 191.893C106.962 187.786 103.313 184.668 99.0491 183.224C94.7854 181.779 90.2567 182.127 86.4589 184.191L21.2853 219.609C17.416 220.311 13.3421 219.52 9.80516 217.38C6.26824 215.241 3.50281 211.896 2.01249 207.953C0.522225 204.01 0.405716 199.731 1.68436 195.895C2.9631 192.06 5.55201 188.922 8.98002 187.053L139.103 116.338C142.901 114.274 145.656 110.663 146.764 106.3C147.871 101.937 147.24 97.1782 145.008 93.0714C142.776 88.9647 139.127 85.846 134.863 84.4017C130.599 82.9571 126.071 83.3051 122.273 85.369L56.2775 121.234C52.4796 123.298 47.9509 123.646 43.6875 122.202C39.4234 120.757 35.7745 117.639 33.5427 113.532C31.3108 109.425 30.679 104.667 31.7868 100.303C32.8939 95.9399 35.6495 92.3292 39.4473 90.2652L200.7 2.63225C204.498 0.568312 209.027 0.220359 213.29 1.66495C217.554 3.10923 221.203 6.22793 223.435 10.3347C225.667 14.4415 226.299 19.1998 225.191 23.5634C224.084 27.9266 221.328 31.5373 217.53 33.6013L181.42 53.2256C177.622 55.2896 174.866 58.9003 173.759 63.2635C172.651 67.6271 173.283 72.3855 175.515 76.4922C177.747 80.599 181.396 83.7177 185.66 85.162C189.923 86.6066 194.452 86.2586 198.25 84.1947L298.488 29.7201C302.286 27.6562 306.815 27.3082 311.078 28.7528C315.342 30.1972 318.991 33.3158 321.223 37.4226C323.455 41.5293 324.087 46.2876 322.979 50.6509C321.872 55.0146 319.116 58.6252 315.318 60.6892L311.383 62.8275C309.793 63.1127 308.268 63.6478 306.859 64.4145L145.606 152.047C141.82 154.123 139.074 157.734 137.968 162.093C136.862 166.452 137.485 171.205 139.701 175.314C141.942 179.411 145.591 182.52 149.851 183.963C154.11 185.406 158.635 185.066 162.436 183.016L331.782 90.9849C335.583 88.9351 340.108 88.5952 344.368 90.0382C348.627 91.4812 352.276 94.5907 354.517 98.6874Z" fill="url(#paint0_linear_1_1163)" fill-opacity="0.5"/>
<defs>
<linearGradient id="paint0_linear_1_1163" x1="2.89239" y1="209.983" x2="321.04" y2="37.0859" gradientUnits="userSpaceOnUse">
<stop stop-color="#5B38D2"/>
<stop offset="1" stop-color="#CF4DA7"/>
</linearGradient>
</defs>
</svg>
