<svg  width="502" height="475" viewBox="0 0 502 475" fill="none" xmlns="http://www.w3.org/2000/svg">
                <circle cx="147" cy="229" r="180" fill="url(#paint0_linear_0_1)"/>
                <g clip-path="url(#clip0_0_1)">
                <path d="M164.014 47.224L181.614 39.7792L225.44 8.35962L238.506 1.37224L300.406 6.59306L337.992 17.9022L349.035 8.95899L364.328 1.37224L367.599 1.00946L386.02 7.06625L407.744 16.8139L413.542 20.7571V29.3533L418.25 37.1451L412.499 46.0883L481.92 262.461L486.233 267.224L490.419 270.379L490.277 287.618L487.591 290.505L479.06 302.145L488.982 303.628L494.417 314.7L442.438 406.845L436.893 407.902L414.648 393.644L406.575 368.013L367.188 332.776L313.061 295.836L195.549 127.555L190.067 110.647L194.001 97.5868L199.941 89.1167L205.091 88.1861L231.618 76.2618L164.014 47.224Z" fill="white"/>
                <path d="M321.782 391.262L339.793 407.082L351.642 399.716L366.351 411.877C366.351 411.877 370.127 408.423 368.973 420.032C367.82 431.64 362.654 471.167 362.654 471.167L347.945 473.77L314.499 428.375L282.301 409.527L269.14 416.972L262.189 419.038L231.776 412.114L224.24 395.852L228.11 382.192L211.964 387.524L202.864 391.972L196.56 390.804L175.674 363.502L152.355 342.571L140.743 297.303L174.173 284.117L172.767 272.618L180.872 260.126L187.681 259.432L191.884 253.533L209.91 260.237L242.25 252.066L313.045 295.852L330.203 345.189L321.782 391.262Z" fill="white"/>
                <path d="M311.007 423.123L344.153 405.615L350.473 399.858L368.294 412.098L369.195 421.372L368.563 436.814L362.67 471.167L347.945 473.77L311.007 423.123Z" fill="#2B2B2B"/>
                <path d="M370.063 428.044C370.048 424.795 370.032 421.719 370.111 418.628C370.237 413.991 368.657 411.151 364.881 409.968C368.357 413.817 369.432 418.281 368.847 423.155C367.567 433.896 366.256 444.621 364.787 455.331C364.565 456.94 363.396 458.423 362.67 459.968C361.469 449.054 362.812 438.218 359.052 428.864C359.052 437.476 359.399 446.845 358.909 456.151C358.641 461.341 358.009 461.309 362.938 462.603C361.595 470.205 358.783 472.808 351.247 472.95C350.03 472.965 348.182 472.066 347.629 471.041C339.84 456.388 331.72 442.003 319.46 430.394C318.464 429.448 318.18 426.64 318.812 425.284C320.013 422.729 319.681 421.136 317.501 419.621C308.827 413.58 300.185 407.508 291.464 401.546C290.627 400.978 289.363 401.041 288.304 400.82C295.493 407.145 302.981 412.571 310.265 418.265C312.413 419.937 313.93 422.397 315.747 424.495L314.783 425.363C304.293 419.054 293.249 413.644 282.885 406.514C278.793 409.558 274.006 413.107 268.398 417.287C271.684 415.931 274.591 415.426 276.502 413.785C279.204 411.451 281.274 412.066 283.881 413.517C292.649 418.407 301.48 423.186 310.265 428.044C311.339 428.644 312.287 429.448 313.298 430.142C313.251 430.568 313.219 430.978 313.172 431.404C312.982 431.42 312.792 431.451 312.603 431.483C313.172 432.397 313.377 433.517 313.219 434.543C316.015 435.505 319.128 436.435 320.645 438.454C328.007 448.202 334.927 458.328 341.562 468.596C345.907 475.315 345.559 475.552 353.554 474.653C354.833 474.511 356.081 474.022 357.361 473.896C361.453 473.47 363.507 471.183 364.202 467.192C365.893 457.461 368.041 447.808 369.4 438.044C369.495 437.382 369.605 436.845 369.763 436.372C369.905 433.565 370.032 430.804 370.063 428.044Z" fill="#2B2B2B"/>
                <path d="M317.896 11.9716C313.851 11.3249 309.917 10.1262 306.031 8.69085C304.15 7.99685 302.27 7.30284 300.406 6.59306C298.905 6.48265 297.42 6.35647 295.919 6.19874C279.078 4.36909 262.283 2.17666 245.442 0.315458C241.239 -0.141955 236.895 -0.236592 233.324 2.68139C256.422 2.09779 278.888 6.89275 301.796 8.73817C301.48 9.46372 301.275 9.98423 301.18 10.1893C310.928 12.3502 320.566 14.4953 330.219 16.6246C330.266 16.4038 330.313 16.1987 330.361 15.9779L317.896 11.9716Z" fill="#2B2B2B"/>
                <path d="M397.933 11.1041C397.98 10.9148 398.027 10.7256 398.075 10.5521C393.051 9.19558 387.979 7.60252 383.54 5.23659C378.658 4.40063 373.997 1.94006 369.131 0.583595C365.972 -0.299686 362.622 -0.473187 359.952 2.17666C356.698 5.41009 352.811 6.8612 348.545 7.28707C347.044 8.59621 345.307 9.68454 343.49 10.5521H345.307C341.878 13.2965 339.034 15.5678 336.191 17.8391C336.396 18.123 336.601 18.4069 336.807 18.6909C339.461 16.9085 342.099 15.0946 344.801 13.3912C346.539 12.2871 348.451 10.4416 350.173 10.5678C354.075 10.8517 356.239 8.86435 358.325 6.26183C362.117 1.54574 366.84 0.615141 372.338 2.83912C377.663 4.98423 383.003 7.08202 388.311 9.25867C394.883 11.9558 401.44 14.7161 408.012 17.4448C408.107 17.2555 408.202 17.0662 408.281 16.877C404.821 14.9527 401.377 13.0284 397.933 11.1041Z" fill="#2B2B2B"/>
                <path d="M306.931 78.6593C304.182 77.1767 301.386 75.9148 303.487 72.4921C301.954 73.0757 299.822 74.6845 298.716 74.1483C289.331 69.7003 280.136 64.858 270.72 60.0473C272.205 56.9874 273.532 54.2429 274.859 51.4984C274.622 51.388 274.385 51.2776 274.133 51.1672C272.316 53.6751 270.483 56.183 268.54 58.8644C262.789 56.3249 257.228 53.817 251.619 51.4038C242.329 47.4132 233.008 43.4858 223.687 39.5741C223.118 39.3375 222.407 39.306 221.775 39.3218C212.548 39.5741 204.839 34.7319 195.707 32.1451C207.272 23.2019 218.22 14.7003 229.58 5.88328C226.688 6.29338 224.224 6.8612 221.854 7.08202C222.17 8.88013 221.38 10.9148 219.468 11.5615C205.787 23.2019 192.436 34.0694 177.112 42.3028C179.75 41.4984 182.309 40.5205 184.553 39.0694C191.283 34.6688 198.061 34.8107 205.407 37.6025C220.511 43.3596 235.757 48.6909 250.94 54.2271C256.485 56.2618 262.015 58.3754 268.413 60.7729C264.385 63.0284 261.288 64.7792 258.176 66.53C258.318 66.8297 258.46 67.1293 258.602 67.429C260.577 66.5931 262.678 65.9937 264.479 64.8896C268.729 62.2555 272.568 62.6498 276.945 64.9842C289.694 71.7981 302.65 78.2334 315.526 84.7949C316.632 85.3628 317.785 85.8044 318.922 86.3249C315.146 83.3596 311.086 80.9148 306.931 78.6593Z" fill="#2B2B2B"/>
                <path d="M425.47 321.104C423.385 322.319 421.299 323.549 418.993 324.905C421.125 316.972 428.488 316.719 435.06 314.164C430.731 311.546 426.955 309.148 423.037 307.019C422.216 306.577 420.841 307.271 419.767 307.098C417.46 306.703 414.695 306.751 413.005 305.457C403.02 297.745 393.319 289.653 383.445 281.767C378.089 277.492 377.078 273.991 379.606 267.476C384.077 255.978 388.517 244.464 392.956 232.95C393.367 231.877 393.604 230.741 394.03 229.243C391.566 228.801 389.401 228.407 387.221 228.013C387.174 228.186 387.126 228.344 387.079 228.517C388.28 229.101 389.496 229.685 390.697 230.268C390.634 230.473 390.57 230.678 390.507 230.883C386.763 230.379 383.003 229.89 378.769 229.322C379.464 228.659 379.954 228.186 380.712 227.461C378.8 227.287 377.015 226.845 375.324 227.066C374.329 227.192 373.018 228.139 372.623 229.069C369.684 235.726 366.967 242.476 364.107 249.164C363.396 250.82 362.464 252.382 361.627 253.991C361.184 253.785 360.758 253.596 360.316 253.391C363.696 244.606 367.077 235.82 370.458 227.035C370.111 226.83 369.779 226.625 369.432 226.42C368.705 227.524 367.757 228.549 367.283 229.748C365.893 233.249 364.755 236.861 363.381 240.363C361.406 245.363 358.072 248.817 352.621 250.252C347.234 251.672 341.941 253.502 336.633 255.205C331.34 256.909 330.124 256.53 326.285 251.609C323.078 253.423 319.902 254.29 318.764 250.174C315.873 252.35 312.808 254.243 310.265 256.703C308.701 258.218 307.215 260.489 306.963 262.571C306.268 268.249 306.173 274.006 305.983 279.732C305.888 282.539 307.042 284.274 309.933 285.647C314.688 287.934 318.954 291.199 323.488 293.959C324.484 294.574 325.7 294.858 326.806 295.284C327.027 294.937 327.233 294.606 327.454 294.259C325.669 292.729 323.868 291.199 321.64 289.29C323.915 290.079 325.748 291.325 327.406 291.12C329.192 290.899 330.693 288.927 332.509 288.407C337.486 286.972 342.558 285.899 347.582 284.669C347.661 285 347.74 285.315 347.819 285.647C344.074 286.514 340.204 287.019 336.665 288.391C334.405 289.259 332.446 291.23 330.772 293.091C330.203 293.722 330.914 295.521 331.135 297.666C333.315 295.284 334.769 293.691 336.728 291.546C336.728 293.36 336.728 294.495 336.728 296.672C340.346 290.284 346.065 290.284 351.452 288.927C360.347 286.703 366.967 289.968 373.555 295.379C381.628 301.987 390.191 307.997 398.517 314.29C401.724 316.719 404.063 319.653 404.837 323.817C405.564 327.729 407.191 329.132 413.1 332.035C412.689 330.915 412.404 330.095 411.931 328.77C413.463 329.48 414.585 330.016 415.675 330.521C413.605 336.893 413.826 337.492 419.688 340.883C423.732 343.233 427.808 345.521 432.153 348.013C435.029 341.073 441.111 340.883 447.036 340.647C450.322 340.521 454.43 348.344 452.581 351.956C446.214 364.495 439.484 376.861 432.88 389.29C432.738 389.558 432.327 389.669 432.659 389.464C432.485 387.319 432.121 384.937 432.169 382.571C432.2 380.82 432.39 378.88 433.148 377.35C436.466 370.71 439.942 364.148 443.528 357.65C444.208 356.404 445.882 355.757 446.783 354.574C448.11 352.855 450.022 350.962 450.132 349.054C450.29 346.167 447.841 344.338 444.95 344.243C442.391 344.164 439.689 344.385 437.24 345.11C433.78 346.136 432.058 349.416 433.243 352.886C434.412 356.341 433.67 359.274 432.074 362.24C428.804 368.328 425.723 374.527 422.105 380.41C420.557 382.934 418.061 385 415.691 386.893C413.337 388.786 413.147 391.64 415.754 393.344C421.868 397.35 428.014 401.309 434.128 405.3C435.171 405.978 436.15 406.767 436.909 407.902C428.677 403.076 419.024 400.568 412.768 392.603C410.872 390.174 408.534 388.044 406.922 385.457C405.595 383.328 404.426 380.741 404.268 378.297C403.826 371.53 400.903 366.751 395.31 362.792C384.883 355.426 374.914 347.429 364.139 339.243C360.047 344.416 356.303 349.369 352.321 354.133C349.683 357.287 346.871 360.363 343.79 363.076C341.262 365.3 338.229 366.94 335.432 368.849C327.991 373.927 325.479 381.956 322.904 389.905C322.54 391.041 322.967 392.445 323.062 394.227C316.063 388.991 309.222 384.054 302.665 378.754C301.496 377.808 300.991 375.268 301.196 373.596C302.018 366.483 303.139 359.401 304.34 352.334C304.909 348.959 304.293 346.325 301.623 343.943C290.99 334.48 280.547 324.826 269.914 315.379C264.163 310.268 259.361 304.7 257.149 297.05C255.364 290.915 252.63 289.527 246.516 291.372C241.776 292.808 237.843 292.413 234.43 288.644C230.101 283.833 224.635 285.473 219.374 286.12C218.284 286.262 217.193 286.53 215.961 286.183C218.694 285.063 221.443 283.959 224.65 282.65C220.243 279.621 216.23 276.861 212.564 274.353C213.891 273.596 215.487 273.123 216.451 272.066C220.559 267.539 224.872 266.767 230.338 269.874C237.242 273.786 244.446 277.177 251.524 280.804C254.4 282.287 255.758 284.574 255.142 287.855C255.048 288.36 254.7 289.069 254.905 289.353C260.735 297.208 260.609 309.464 272.553 313.06C273.88 311.167 275.223 309.101 276.724 307.161C279.172 303.959 281.653 301.073 286.013 299.937C291.037 298.628 291.669 294.369 287.799 291.073C275.223 280.394 261.683 271.104 247.259 263.107C238.016 257.981 228.853 256.562 218.994 262.098C216.561 263.47 212.438 262.697 209.357 261.877C205.502 260.836 202.058 258.344 198.203 257.224C195.738 256.498 192.879 257.082 190.193 257.082C190.114 257.508 190.019 257.934 189.94 258.344C194.633 261.262 199.325 264.18 204.017 267.098C203.891 267.397 203.749 267.697 203.622 267.997C201.742 267.24 199.862 266.467 197.982 265.71C194.49 264.322 190.951 263.028 187.491 261.53C183.51 259.811 180.698 261.293 178.407 264.495C176.827 266.719 175.279 268.975 173.478 271.562C178.107 274.858 182.578 278.06 187.049 281.246C186.986 281.356 186.923 281.467 186.844 281.577C185.28 281.088 183.7 280.599 181.377 279.874C185.359 289.274 195.138 291.262 200.605 297.918C200.921 297.729 201.237 297.555 201.552 297.366C200.715 295 199.894 292.65 199.104 290.41C201.363 290.41 203.891 290.41 206.419 290.41C205.96 290.836 205.297 291.467 204.412 292.303C205.281 293.486 206.182 294.7 207.73 296.814C205.802 295.726 204.76 295.142 202.611 293.927C202.943 296.025 202.753 297.461 203.369 298.312C205.344 301.041 207.414 303.785 209.831 306.12C214.144 310.268 218.742 314.117 222.992 317.902C222.818 316.688 222.486 314.479 222.154 312.192C226.736 318.691 233.324 315.647 239.296 315.394C244.209 315.189 249.107 314.464 254.005 313.975C254.052 314.338 254.1 314.716 254.131 315.079C245.6 316.041 237.084 317.003 228.126 317.997C229.153 320.615 230.022 322.855 230.891 325.095C230.717 325.205 230.543 325.316 230.37 325.426C228.869 323.218 227.384 321.009 225.772 318.628C222.928 321.498 224.413 323.88 225.899 326.199C232.692 336.845 236.215 348.439 235.457 361.057C235.141 366.262 233.861 371.42 233.024 376.593C232.503 376.562 231.997 376.53 231.476 376.514C230.749 372.539 230.022 368.565 229.327 364.669C216.672 362.918 198.487 379.905 196.607 390.82C191.82 385.252 187.507 379.716 182.641 374.716C173.114 364.89 163.319 355.331 153.555 345.726C149.653 341.877 149.843 342.224 153.382 338.218C157.521 333.533 161.06 328.344 164.931 323.423C166.131 321.893 167.379 320.315 168.896 319.133C172.672 316.199 176.954 316.293 179.56 320.252C184.9 328.407 189.688 336.94 194.427 345.473C195.043 346.593 194.443 348.927 193.621 350.205C190.588 354.905 187.349 359.48 183.968 363.943C181.63 367.019 181.567 369.795 183.968 372.776C187.049 376.609 190.082 380.489 193.195 384.432C207.746 364.748 208.788 364.006 229.343 358.675C228.964 353.013 227.542 347.539 224.761 342.555C224.129 341.42 221.68 340.836 220.037 340.789C212.849 340.536 212.075 340.016 209.357 333.454C205.676 324.574 202.311 315.521 197.95 306.987C193.89 299.022 187.191 293.139 179.213 288.675C183.163 293.297 187.112 297.934 191.046 302.555C190.825 302.76 190.62 302.981 190.398 303.186C185.706 298.849 181.077 294.432 176.29 290.205C174.979 289.054 173.304 288.091 171.629 287.681C170.681 287.445 169.418 288.517 168.406 289.401C166.084 289.921 163.667 290.174 161.455 290.994C156.194 292.934 151.059 295.205 145.814 297.192C144.203 297.808 142.417 297.918 140.695 298.249C140.474 297.744 140.269 297.256 140.047 296.751C142.038 295.647 143.934 294.322 146.019 293.486C153.998 290.284 162.071 287.287 170.065 284.117C171.14 283.691 171.993 282.697 172.941 281.956C172.024 281.12 171.219 280.126 170.176 279.495C167.537 277.886 164.788 276.435 161.881 274.795C162.34 274.432 162.545 274.164 162.671 274.196C168.833 275.379 168.754 275.315 172.325 270.063C174.584 266.735 177.08 263.533 179.608 260.394C180.287 259.558 181.63 258.439 182.388 258.612C186.006 259.495 187.586 257.05 189.324 254.826C191.726 251.751 194.522 251.262 197.935 253.107C200.573 254.527 203.354 255.678 205.992 257.098C209.484 258.975 212.169 257.981 214.571 255.11C219.532 249.196 219.563 249.211 227.02 248.423C226.531 244.606 226.041 240.804 225.488 236.404C222.597 237.208 220.227 237.744 217.952 238.533C209.942 241.309 201.963 244.164 193.969 246.987C189.435 248.596 187.491 247.823 185.074 244.054C182.799 240.505 184.49 238.344 187.128 236.088C190.304 233.375 193.226 230.379 196.355 227.603C198.472 225.726 200.131 222.855 203.938 224.637C204.696 224.984 206.893 223.517 207.556 222.382C208.093 221.483 207.777 219.227 207.003 218.565C202.611 214.763 200.984 208.754 194.554 206.151C190.762 204.621 186.307 200.852 184.806 195.205C182.467 186.42 179.007 177.934 176.1 169.29C174.489 164.495 174.647 159.905 177.443 155.426C178.312 154.038 178.707 151.782 178.233 150.268C175.453 141.278 177.854 133.344 182.515 125.71C183.605 123.943 184.49 122.05 185.501 120.158C187.428 120.457 189.277 120.741 191.836 121.136C187.033 112.177 188.913 104.495 194.317 97.2082C193.226 102.429 192.152 107.603 191.094 112.776C191.552 112.886 191.994 112.997 192.452 113.123C194.806 106.703 197.176 100.284 199.467 93.8486C199.704 93.1704 199.641 92.3186 199.499 91.5931C198.882 88.5331 198.867 88.5331 202.801 88.8801C199.925 98.4227 197.066 107.918 193.969 118.186C195.296 117.603 196.133 117.492 196.26 117.114C199.056 109.543 201.884 101.987 204.412 94.3376C205.028 92.4606 204.017 89.9527 204.791 88.2177C206.592 84.2114 208.788 80.3312 211.364 76.7981C212.185 75.6782 214.903 76.1199 216.467 75.2997C217.81 74.6057 218.757 73.1388 219.895 72.0032C218.836 71.0883 217.92 69.795 216.688 69.3375C199.988 62.9969 183.257 56.7823 166.526 50.5205C165.168 50.0158 163.841 49.3849 162.498 48.8013C162.529 48.4543 162.545 48.123 162.577 47.776C166.59 46.2145 170.587 44.653 174.6 43.0757C174.694 43.2808 174.805 43.4858 174.9 43.6909C172.451 44.8896 170.002 46.1041 166.763 47.6814C169.433 48.8328 171.471 49.7792 173.557 50.5994C192.863 58.1388 212.233 65.5363 231.444 73.2965C236.168 75.2051 240.355 75.7887 244.81 73.0757C246.105 72.2871 247.638 71.877 249.392 71.9085C246.516 73.47 243.625 75.0158 240.149 76.8928C244.873 79.4322 249.044 81.7193 253.262 83.9432C273.832 94.795 292.143 108.344 305.667 127.65C307.847 130.757 310.66 133.423 313.14 136.309C313.646 136.893 314.183 137.539 314.404 138.249C318.654 151.23 323.267 164.117 326.869 177.287C328.465 183.139 327.991 189.543 328.528 196.656C320.25 189.401 317.832 181.798 322.619 172.303C318.117 174.069 316.205 178.107 316.758 183.47C317.501 190.82 322.019 196.751 327.944 197.902C327.549 215.063 322.351 231.341 317.943 248.312C326.869 245.315 335.29 242.476 343.711 239.653C343.6 239.322 343.506 238.991 343.395 238.659C335.843 241.136 328.291 243.628 320.739 246.104C320.613 245.804 320.487 245.489 320.36 245.189C322.098 244.416 323.789 243.517 325.574 242.886C330.851 241.041 336.127 239.227 341.467 237.555C345.449 236.309 347.692 233.659 348.909 229.211C342.289 231.246 336.064 233.155 329.839 235.063C329.729 234.795 329.618 234.527 329.492 234.259C330.013 233.927 330.487 233.486 331.056 233.281C335.938 231.467 340.851 229.748 345.717 227.886C350.631 226.009 354.075 222.713 355.56 217.524C356.603 213.912 357.914 210.363 358.909 206.735C360.173 202.145 363.065 199.353 367.63 198.249C369.653 197.76 371.722 196.83 373.697 197.003C375.609 197.161 377.995 197.997 379.164 199.385C380.886 201.435 382.592 202.445 385.167 202.098C386.715 201.893 388.248 201.577 389.812 201.388C398.612 200.347 399.118 200.315 398.486 191.435C397.475 177.035 396.353 162.571 393.999 148.36C393.082 142.823 388.943 137.697 385.736 132.729C384.993 131.593 381.944 131.23 380.191 131.593C375.167 132.634 370.253 134.243 364.755 134.905C365.213 134.369 365.592 133.517 366.161 133.344C370.759 131.924 375.419 130.71 380.001 129.274C383.508 128.17 386.321 129.085 388.896 131.546C390.697 133.265 392.498 134.495 395.5 133.517C396.685 133.123 399.686 134.89 400.16 136.262C403.052 144.432 406.543 152.634 407.728 161.12C409.055 170.568 408.17 180.331 408.155 189.968C408.155 192.697 407.665 195 403.984 195.394C402.862 195.521 401.235 197.981 401.171 199.416C401.045 202.492 399.702 203.628 396.922 203.722C393.414 203.849 391.044 205.426 390.033 208.927C389.054 212.303 388.011 215.647 386.905 218.991C386.005 221.735 387.268 223.375 389.717 223.975C394.267 225.095 398.849 226.372 403.478 226.609C405.232 226.688 408.17 224.385 408.755 222.587C415.454 202.24 421.173 181.688 418.929 159.874C417.176 142.871 411.093 127.808 398.912 115.552C396.258 112.886 395.847 110.284 396.7 106.782C401.724 85.836 406.575 64.8423 411.472 43.959C404.631 41.1514 400.84 43.1073 399.37 49.5584C398.596 52.9811 397.727 56.388 396.669 59.7161C395.531 63.3123 393.082 65.4574 389.101 65.1262C380.396 64.4164 371.691 63.7855 363.033 62.7129C361.801 62.5552 360.347 60.2524 359.873 58.6751C358.309 53.47 357.962 47.7603 355.639 42.9811C353.08 37.6972 348.846 33.2177 345.338 28.3912C344.39 27.0978 343.395 25.836 342.431 24.5584C342.731 24.1483 343.016 23.7224 343.316 23.3123C345.149 24.164 347.171 24.7476 348.782 25.8991C356.113 31.1514 360.331 38.5016 362.591 47.082C363.412 50.2208 364.123 53.4069 365.008 56.53C365.719 59.0221 367.314 60.5363 370.079 60.5994C377.126 60.7729 384.188 61.0095 391.234 61.183C393.667 61.2461 395.136 60.1262 395.579 57.6341C396.258 53.8013 397.206 50 397.743 46.1514C398.249 42.5552 400.002 40.7729 403.668 40.8517C406.417 40.8991 409.15 40.8044 411.899 40.8517C414.269 40.8991 416.923 40.6309 416.86 37.8233C416.812 36.0568 415.311 33.612 413.747 32.7445C408.297 29.6688 402.53 27.2082 396.922 24.4006C394.236 23.0599 391.692 21.4511 389.085 19.9685C389.275 19.6057 389.465 19.2271 389.67 18.8644C396.922 22.1924 404.173 25.5047 411.709 28.959C412.183 25.9148 412.594 23.2334 413.005 20.5363C413.352 20.5363 413.716 20.5521 414.063 20.5521C414.174 22.4921 414.364 24.4322 414.379 26.3722C414.411 29.1009 414.932 31.4196 417.571 33.0284C419.656 34.2902 419.783 38.8801 417.997 41.4984C417.128 42.776 416.022 43.9117 414.553 45.6782C416.97 47.2555 419.103 48.8959 421.441 50.1104C448.805 64.1798 472.203 83.3912 493.674 105.174C500.452 112.05 502.616 120.142 501.826 129.464C500.531 144.653 499.567 159.858 498.145 175.032C495.807 199.89 492.821 224.653 486.154 248.801C485.269 252.035 483.831 255.142 483.136 258.407C482.662 260.584 483.041 262.95 483.041 264.164C476.595 266.893 470.355 269.527 464.083 272.177C466.626 286.23 459.311 296.688 452.644 307.114C448.979 312.839 442.138 314.432 435.945 316.53C433.196 317.461 430.636 318.912 427.998 320.126C427.176 320.473 426.323 320.789 425.47 321.104ZM295.903 239.748C299.743 244.685 304.277 246.23 311.181 244.227C305.383 242.571 300.596 241.215 295.809 239.842C294.497 238.722 293.312 237.413 291.875 236.53C282.506 230.789 274.749 223.533 270.973 212.997C262.805 190.221 265.001 168.391 277.956 147.855C279.931 144.716 282.648 142.035 285.018 139.148C285.271 139.353 285.524 139.574 285.792 139.779C284.718 141.215 283.628 142.634 282.601 144.085C281.463 145.678 280.357 147.287 279.283 148.927C267.497 167.035 266.755 186.909 270.246 207.334C271.147 212.603 274.449 216.767 278.604 220.221C279.962 221.356 280.8 223.123 281.874 224.59C282.253 225.284 283.407 225.536 283.928 226.246C289.995 234.401 298.637 237.934 308.148 240.032C310.77 240.615 311.687 239.432 312.161 237.192C312.698 234.653 313.108 232.035 314.025 229.621C315.241 226.388 314.088 224.953 311.244 223.281C284.307 207.382 278.288 168.912 304.466 147.839C304.861 147.524 305.446 147.445 306.062 147.192C301.544 141.719 297.594 136.924 293.66 132.129C293.328 132.303 292.996 132.492 292.649 132.666C293.186 134.558 293.739 136.451 294.276 138.344C294.071 138.423 293.865 138.517 293.676 138.596C292.317 136.483 290.943 134.369 288.936 131.262C284.449 135.931 280.01 139.637 276.692 144.18C259.692 167.413 259.629 204.196 276.186 227.823C281.005 234.732 287.372 239.006 295.903 239.748ZM288.952 114.085C283.628 109.385 278.398 104.89 273.295 100.221C271.715 98.7697 270.609 98.6751 269.014 100.142C262.204 106.42 255.048 112.35 248.538 118.927C240.781 126.735 235.267 136.009 233.308 147.05C231.002 160.032 228.189 162.918 215.677 165.221C211.838 165.931 209.373 165.174 207.714 161.183C203.275 150.615 198.503 140.205 193.732 129.779C192.831 127.808 191.599 125.82 190.019 124.385C187.428 122.05 185.422 122.666 184.158 125.852C182.373 130.331 180.493 134.779 179.071 139.369C178.454 141.356 178.297 143.801 178.849 145.804C184.616 166.688 192.326 186.861 201.537 206.467C203.196 210 205.502 211.23 209.278 210.71C221.301 209.038 233.34 207.524 245.363 205.899C250.26 205.237 251.651 203.628 251.603 198.659C251.509 185.978 252.709 173.439 255.553 161.041C255.98 159.18 255.348 156.53 254.194 154.968C250.75 150.3 250.545 150.442 254.1 145.773C258.65 139.811 263.216 133.849 267.766 127.886C267.56 127.697 267.355 127.524 267.149 127.334C263.705 130.552 260.261 133.754 256.817 136.972C256.533 136.672 256.264 136.356 255.98 136.057C259.345 132.366 262.852 128.801 266.012 124.953C268.793 121.593 271.589 122.05 275.144 124.164C273.2 124.763 271.636 125.252 269.851 125.804C273.532 128.202 276.692 127.823 279.883 125.442C284.039 122.334 288.32 119.385 292.554 116.372C292.27 115.915 291.97 115.442 291.685 114.984C287.546 117.476 283.407 119.968 279.267 122.445C279.141 122.224 279.014 122.019 278.888 121.798C282.174 119.29 285.476 116.751 288.952 114.085ZM215.298 129.905C215.534 129.984 215.787 130.063 216.024 130.142C214.571 136.325 213.07 142.492 211.68 148.675C211.253 150.568 210.495 152.729 211.048 154.385C211.774 156.609 213.402 159.905 215.045 160.158C217.889 160.584 221.254 159.511 224.019 158.233C230.022 155.473 232.487 145.489 228.426 141.688C224.808 138.297 224.382 136.372 227.415 132.256C233.514 123.959 239.865 115.852 246.121 107.666C248.491 104.574 251.256 104.038 254.653 106.151C255.521 106.703 257.259 106.94 258.002 106.435C260.83 104.48 263.421 102.177 266.439 99.7161C261.383 97.0347 256.722 94.7319 252.22 92.1451C250.039 90.8991 248.617 91.0568 246.848 92.9022C241.239 98.7224 235.394 104.338 229.706 110.095C227.937 111.877 226.357 113.849 224.682 115.741C224.334 115.442 223.987 115.158 223.655 114.858C224.84 112.508 226.025 110.158 227.194 107.855C221.554 104.29 221.08 102.634 223.308 96.388C225.314 90.8202 227.162 85.1893 229.106 79.4953C216.119 77.5552 212.059 79.9527 208.172 91.4827C204.554 102.208 200.968 112.934 197.492 123.707C197.002 125.237 196.497 127.256 197.097 128.549C200.146 135.11 203.543 141.498 207.224 148.738C210.147 141.909 212.722 135.899 215.298 129.905ZM371.77 339.259C381.96 346.64 392.071 353.77 401.93 361.246C404.015 362.823 405.564 365.505 406.575 367.997C408.076 371.719 408.613 375.82 410.066 379.558C410.651 381.073 412.863 383.281 413.842 383.06C416.449 382.476 418.993 380.978 421.094 379.274C421.663 378.801 420.857 376.199 420.209 374.779C419.309 372.808 417.413 371.151 416.939 369.133C415.706 363.849 413.826 358.281 414.411 353.091C415.169 346.388 412.294 343.454 407.207 340.442C398.881 335.521 396.843 335.868 400.982 324.495C402.198 321.151 401.314 318.502 398.296 316.356C392.34 312.129 386.715 307.413 380.601 303.439C375.277 299.984 369.637 296.909 363.807 294.401C358.657 292.192 353.174 292.713 347.929 295.189C357.646 303.644 367.093 312.019 376.731 320.174C379.48 322.492 379.717 324.763 378.105 327.666C376.099 331.325 374.108 334.984 371.77 339.259ZM317.595 222.902C318.685 217.192 319.649 211.845 320.739 206.514C321.434 203.091 320.803 200.347 318.275 197.618C310.897 189.621 309.901 177.95 315.526 169.495C319.839 163.013 319.744 160.205 314.704 153.47C309.949 158.17 305.288 162.886 300.469 167.429C299.458 168.375 297.863 169.148 296.504 169.196C293.755 169.29 292.112 170.568 292.017 173.06C291.764 179.133 291.875 185.205 291.827 191.278C291.812 194.069 293.233 195.505 295.919 196.073C299.853 196.924 302.523 199.369 304.577 202.792C305.825 204.874 307.61 206.672 309.333 208.407C311.781 210.883 313.44 213.801 312.445 217.177C311.118 221.735 313.472 222.524 317.595 222.902ZM303.977 273.754C304.466 267.366 305.019 261.293 305.272 255.205C305.304 254.322 304.087 253.013 303.139 252.524C288.731 245.063 277.656 234.069 269.093 220.489C267.56 218.044 265.917 217.319 263.358 218.013C259.092 219.18 256.106 217.839 253.926 213.912C253.294 212.776 251.414 212.35 250.102 211.593C249.486 213.107 248.159 214.748 248.38 216.12C248.981 219.827 250.181 223.439 251.319 227.035C251.603 227.934 252.346 228.864 253.136 229.385C265.19 237.366 277.261 245.331 289.426 253.155C292.333 255.032 294.023 257.098 293.597 260.741C292.965 266.025 295.872 271.199 303.977 273.754ZM185.69 241.498C187.902 245.662 190.857 245.521 194.317 244.495C209.531 239.968 224.777 235.552 240.007 231.104C246.042 229.353 248.839 224.748 247.59 218.596C247.385 217.571 247.116 216.577 246.895 215.552C246.453 213.502 246.2 211.151 243.167 211.798C240.655 212.35 237.195 211.262 236.895 215.852C236.8 217.303 234.983 219.464 233.545 219.89C222.691 223.044 211.727 225.836 200.81 228.77C199.973 228.991 199.009 229.227 198.393 229.779C194.143 233.612 189.988 237.524 185.69 241.498ZM356.16 223.391C357.045 223.391 357.819 223.47 358.562 223.375C364.502 222.587 370.427 221.593 376.383 221.009C382.481 220.426 384.804 218.391 385.325 212.382C385.483 210.457 385.594 208.517 385.673 207.129C381.992 205.883 378.626 204.732 375.245 203.612C370.19 201.94 362.638 204.59 360.726 209.211C358.862 213.707 357.693 218.502 356.16 223.391ZM257.133 171.215C261.509 172.555 263.453 171.656 264.258 167.287C266.138 157.177 270.483 147.997 277.04 140.032C278.92 137.744 278.714 135.82 276.913 134.416C275.886 133.612 273.042 133.517 272.237 134.322C268.793 137.729 265.57 141.435 262.742 145.363C260.925 147.871 259.629 150.536 255.237 149.732C258.997 156.893 258.902 163.943 257.133 171.215ZM401.772 230.237C401.077 229.827 400.366 229.401 399.671 228.991C398.091 230.789 395.926 232.334 395.026 234.416C390.807 244.338 386.858 254.369 383.003 264.432C382.134 266.688 381.849 269.211 381.565 271.656C381.454 272.618 382.102 273.675 382.387 274.685C383.177 273.991 384.267 273.438 384.709 272.571C388.216 265.757 392.04 259.054 394.884 251.956C397.727 244.937 399.528 237.492 401.772 230.237ZM227.162 97.3344C230.496 95.0158 232.629 92.6814 235.188 92.0347C237.637 91.4196 240.528 92.5394 243.214 92.9022C243.214 93.3123 243.214 93.7224 243.198 94.1167C245.268 92.4448 247.322 90.7571 249.865 88.7066C243.799 86.3565 238.285 84.2429 232.424 81.9716C230.686 87.0347 229.122 91.6246 227.162 97.3344ZM180.145 158.091C179.466 167.981 192.168 202.618 197.097 204.432C191.489 189.085 185.991 174.069 180.145 158.091ZM446.83 356.183C442.817 363.565 438.994 370.536 435.281 377.555C434.855 378.36 434.981 379.464 434.855 380.442C435.218 380.473 435.597 380.521 435.961 380.552C441.427 373.013 448.189 358.439 446.83 356.183ZM213.402 321.356C214.681 327.808 214.966 334.7 221.664 340.016C221.886 337.95 222.549 336.451 222.059 335.584C219.342 330.757 216.324 326.073 213.402 321.356ZM321.782 343.028C321.308 343.044 320.85 343.044 320.376 343.06C319.791 355.268 319.223 367.461 318.638 379.669C319.112 379.685 319.602 379.7 320.076 379.732C320.645 367.492 321.213 355.252 321.782 343.028ZM452.628 183.849C452.786 183.849 452.944 183.833 453.102 183.833C453.102 177.019 453.102 170.205 453.102 163.391C452.944 163.391 452.786 163.407 452.628 163.407C452.628 170.205 452.628 177.019 452.628 183.849ZM306.094 304.274C306.742 304.558 307.405 304.827 308.053 305.11C309.633 307.713 311.213 310.315 313.061 313.328C312.571 308.975 312.129 305.095 311.702 301.199C311.102 300.773 310.502 300.347 309.885 299.937C308.622 301.372 307.358 302.823 306.094 304.274ZM354.754 331.136C355.149 330.662 355.56 330.174 355.955 329.7C351.405 325.915 346.855 322.129 342.305 318.36C341.989 318.738 341.689 319.117 341.373 319.495C345.828 323.375 350.283 327.256 354.754 331.136ZM350.346 303.344C347.503 307.398 348.15 308.833 353.396 310.647C356.224 306.751 353.633 305.016 350.346 303.344ZM341.689 295.836C341.12 298.454 337.707 300.505 341.072 302.745C343.442 304.322 345.275 302.587 346.634 300.3C345.038 298.864 343.537 297.508 341.689 295.836ZM221.159 252.066C222.296 254.653 222.992 256.199 223.892 258.218C225.061 256.814 225.993 255.694 227.257 254.196C225.251 253.486 223.655 252.934 221.159 252.066Z" fill="#2B2B2B"/>
                <path d="M469.802 280.394C470.608 284.59 471.382 288.785 472.235 292.965C472.598 294.779 471.698 297.634 475.189 297.24C478.254 296.877 482.188 297.776 482.678 292.965C483.405 285.584 484.052 278.202 484.716 270.82C484.827 269.669 484.921 268.517 485.948 266.561C487.607 268.091 490.562 269.511 490.688 271.151C491.099 276.688 490.498 282.303 490.277 287.871C489.819 287.839 489.377 287.823 488.919 287.792C489.219 282.019 489.535 276.262 489.835 270.489C489.298 270.41 488.776 270.331 488.239 270.268C486.217 275.662 486.833 281.561 486.201 287.208C486.122 287.981 487.244 288.896 487.971 289.968C485.917 293.17 483.42 297.05 480.893 301.009C483.484 302.902 487.323 299.196 489.171 304.069C484.953 304.59 481.051 305.173 477.148 305.536C473.404 305.883 469.77 306.498 467.685 310.016C466.721 311.64 465.473 313.801 465.821 315.394C467.953 325.095 459.912 330.331 456.278 337.413C455.678 338.596 452.47 338.454 450.48 338.927C450.622 337.114 450.18 334.953 451.017 333.533C455.393 325.994 460.18 318.707 464.62 311.214C467.005 307.177 470.007 304.338 474.81 303.533C476.738 303.218 478.807 302.476 477.701 299.653C477.448 299.543 477.212 299.353 476.975 299.353C469.66 299.401 469.644 299.401 469.091 292.066C468.822 288.565 468.633 285.063 468.443 281.546C468.427 281.23 468.617 280.883 468.712 280.568C469.059 280.505 469.423 280.457 469.802 280.394Z" fill="#2B2B2B"/>
                <path d="M262.979 419.006C259.74 419.148 256.311 420.032 253.294 419.274C246.105 417.492 239.043 415.11 232.044 412.65C226.467 410.694 223.94 406.656 222.233 400.726C220.274 393.927 222.281 389.527 226.562 385.095C226.973 384.669 227.194 384.038 227.257 383.028C219.121 386.136 212.517 393.328 201.947 392.24C203.701 390.662 204.76 389.416 206.087 388.549C210.1 385.883 214.334 383.533 218.252 380.741C222.423 377.744 226.294 377.476 230.433 381.199C225.061 388.754 227.684 396.546 229.627 404.621C230.844 409.7 233.292 411.893 238.206 412.823C246.453 414.401 254.115 418.943 262.994 417.35C262.994 417.918 262.979 418.47 262.979 419.006Z" fill="#2B2B2B"/>
                <path d="M440.305 407.082C458.205 376.167 476.058 345.315 493.927 314.464C494.432 314.7 494.954 314.953 495.459 315.189C495.017 316.372 494.717 317.618 494.116 318.722C486.738 332.129 479.329 345.521 471.935 358.927C464.209 372.902 456.468 386.861 448.805 400.867C446.356 405.3 444.287 407.003 440.305 407.082Z" fill="black"/>
                <path d="M236.515 394.732C248.696 401.246 259.74 397.192 270.451 391.609C271.826 390.883 272.869 387.681 272.489 385.962C272.174 384.527 269.661 382.839 267.939 382.587C260.704 381.561 254.036 383.58 247.812 387.287C244.715 389.132 241.539 390.852 238.395 392.634C238.111 392.366 237.843 392.098 237.558 391.83C238.727 390.505 239.691 388.88 241.097 387.902C249.249 382.334 258.381 380.173 268.176 380.71C271.463 380.899 276.107 385.095 276.265 387.729C276.423 390.489 272.632 396.104 269.74 396.735C261.493 398.533 253.231 400.331 244.889 401.688C239.565 402.555 237.211 400.379 236.515 394.732Z" fill="#2B2B2B"/>
                <path d="M322.762 282.35C317.864 282.382 314.135 278.47 314.041 273.218C313.93 267.145 318.306 262.413 324.025 262.445C329.476 262.476 333.837 266.956 333.805 272.492C333.773 277.776 328.686 282.319 322.762 282.35ZM325.716 269.29C324.278 267.05 321.861 267.24 319.428 268.738C316.774 270.379 316.079 273.628 317.595 276.199C319.396 279.259 321.987 280.237 324.752 278.817C327.691 277.319 328.102 275.063 327.28 273.044C324.973 273.754 323.172 274.401 321.308 274.732C321.071 274.779 320.076 272.413 320.202 272.334C321.861 271.262 323.646 270.394 325.716 269.29Z" fill="black"/>
                <path d="M378.137 25.3155C376.557 28.1546 374.471 30.8675 373.65 33.9274C373.35 35.0473 376.004 36.9716 377.836 39.164C378.69 37.0032 379.258 35.5678 379.922 33.8959C381.849 34.448 382.371 39.1483 385.136 36.2776C386.478 34.8738 386.621 32.3028 387.253 30.3943C389.449 33.4858 388.975 35.5678 384.867 40.1893C381.691 43.7539 378.595 44.1798 374.076 41.6877C369.795 39.3218 368.357 35.9779 369.732 31.6088C371.059 27.3502 374.187 25.0158 378.137 25.3155Z" fill="black"/>
                <path d="M275.412 366.735C275.223 366.104 275.033 365.489 274.859 364.842C271.684 353.076 268.477 341.325 265.412 329.543C265.127 328.454 265.838 327.098 266.186 325.457C267.544 326.278 268.492 326.845 269.819 327.65C265.949 329.432 267.718 332.05 268.461 334.338C269.188 336.562 270.357 338.644 271.336 340.789C272.41 338.864 273.485 336.924 274.559 335C274.733 334.685 274.875 334.369 275.033 334.054C275.428 334.117 275.839 334.18 276.234 334.227C275.965 336.104 276.155 338.218 275.317 339.779C273.437 343.281 272.663 346.751 273.627 350.631C274.859 355.584 275.965 360.568 277.134 365.552C276.566 365.978 275.997 366.356 275.412 366.735Z" fill="#2B2B2B"/>
                <path d="M381.138 159.953C379.495 162.508 377.884 165.016 376.272 167.524C376.43 167.981 376.588 168.439 376.746 168.896C378.942 168.896 381.644 169.7 383.24 168.722C386.115 166.972 385.72 163.927 383.714 161.136C387.174 162.098 389.054 165.126 388.359 168.281C387.648 171.498 382.229 174.495 378.2 173.864C374.582 173.312 372.955 170.631 373.539 166.246C374.187 161.498 376.667 159.543 381.138 159.953Z" fill="black"/>
                <path d="M297.357 343.912C296.504 346.53 296.267 348.17 295.477 349.464C293.771 352.224 291.78 354.811 289.916 357.476C286.851 361.845 287.103 363.312 291.18 366.577C292.87 367.918 294.355 369.495 295.951 370.962C295.603 371.372 295.256 371.767 294.892 372.177C291.353 369.385 287.593 366.798 284.402 363.659C283.533 362.808 283.722 359.858 284.528 358.565C287.261 354.164 290.437 350.032 293.565 345.883C294.102 345.158 295.287 344.953 297.357 343.912Z" fill="#2B2B2B"/>
                <path d="M374.013 143.028C378.042 139.59 381.344 139.464 384.346 142.098C387.11 144.527 387.347 148.533 384.914 151.893C382.766 154.858 377.979 156.025 374.756 154.353C371.612 152.729 371.027 149.858 373.049 144.905C374.234 147.95 374.408 152.461 378.974 150.899C380.649 150.331 382.655 146.924 382.371 145.142C381.66 140.52 377.821 142.366 374.013 143.028Z" fill="black"/>
                <path d="M267.197 386.987C266.423 387.492 265.712 388.155 264.874 388.47C259.661 390.331 254.447 392.303 249.123 393.801C247.78 394.18 245.995 392.997 244.415 392.524C245.458 391.467 246.311 389.905 247.575 389.432C252.425 387.618 257.354 385.978 262.362 384.653C263.784 384.274 265.554 385.174 267.165 385.505C267.165 385.978 267.181 386.483 267.197 386.987Z" fill="#2B2B2B"/>
                <path d="M372.891 179.921C376.731 175.946 388.596 174.054 392.308 176.703C390.286 182.539 377.315 184.858 372.891 179.921Z" fill="black"/>
                <path d="M359.352 128.297C354.059 120.268 348.767 112.24 343.49 104.196C343.679 103.991 343.869 103.77 344.043 103.565C345.401 104.353 346.76 105.126 348.387 106.057C350.599 101.672 352.795 97.3186 354.991 92.9811C355.386 93.1704 355.781 93.3754 356.16 93.5647C354.723 97.0663 353.38 100.599 351.832 104.054C350.394 107.287 350.504 110.189 352.463 113.265C355.402 117.871 358.009 122.697 360.758 127.429C360.3 127.713 359.826 128.013 359.352 128.297Z" fill="black"/>
                <path d="M311.086 282.997C310.217 281.293 308.59 279.59 308.622 277.902C308.701 272.319 309.317 266.751 309.854 261.183C309.949 260.221 310.612 259.29 311.007 258.36C311.355 258.454 311.702 258.565 312.066 258.659C312.066 266.593 312.066 274.511 312.066 282.445C311.734 282.618 311.402 282.808 311.086 282.997Z" fill="black"/>
                <path d="M375.309 289.953C386.257 298.58 397.19 307.208 408.139 315.82C407.76 316.309 407.38 316.782 407.001 317.271C396.116 308.628 385.23 299.984 374.345 291.356C374.677 290.899 374.993 290.426 375.309 289.953Z" fill="black"/>
                <path d="M425.47 321.104C426.323 320.789 427.176 320.473 428.03 320.158C429.025 319.937 430.036 319.732 431.031 319.511C431.221 319.716 431.395 319.937 431.584 320.142C429.767 322.192 427.982 324.243 426.134 326.278C424.822 327.729 423.416 329.101 422.121 330.552C418.677 334.385 418.677 335.284 421.931 339.18C421.71 339.479 421.473 339.779 421.252 340.079C419.609 338.612 417.966 337.161 416.117 335.505C419.277 330.615 422.374 325.868 425.47 321.104Z" fill="#2B2B2B"/>
                <path d="M378.184 44.9369C380.68 47.224 382.481 48.8959 384.298 50.552C382.513 52.0189 380.807 54.4479 378.911 54.6057C377.521 54.7161 375.151 52.0189 374.645 50.1893C374.329 49.0221 376.604 47.1451 378.184 44.9369Z" fill="black"/>
                <path d="M339.461 405.568C343.126 403.644 346.744 401.609 350.489 399.858C351.294 399.479 352.779 399.811 353.569 400.347C356.034 402.019 358.325 403.959 360.474 406.215C359.81 405.946 359.052 405.789 358.499 405.379C353.648 401.688 348.956 402.192 344.169 405.599C342.968 406.451 341.278 406.593 339.809 407.066C339.682 406.577 339.572 406.073 339.461 405.568Z" fill="#2B2B2B"/>
                <path d="M474.921 296.041C473.594 288.659 472.266 281.278 470.86 273.47C471.761 273.691 472.883 273.738 472.93 273.991C474.226 281.246 475.426 288.533 476.643 295.804C476.058 295.883 475.489 295.962 474.921 296.041Z" fill="#2B2B2B"/>
                <path d="M353.917 419.653C350.062 420.52 346.523 421.309 342.668 422.177C345.986 417.413 349.225 416.672 353.917 419.653Z" fill="#2B2B2B"/>
                <path d="M240.197 357.066C239.47 352.461 238.743 347.855 238.016 343.249C238.38 343.202 238.727 343.139 239.091 343.091C239.644 347.744 240.197 352.382 240.734 357.035C240.576 357.035 240.402 357.05 240.197 357.066Z" fill="#2B2B2B"/>
                <path d="M288.952 114.085C285.492 116.751 282.19 119.29 278.888 121.83C279.014 122.05 279.141 122.256 279.267 122.476C283.407 119.984 287.546 117.492 291.685 115.016C291.97 115.473 292.27 115.946 292.554 116.404C288.32 119.416 284.038 122.366 279.883 125.473C276.708 127.855 273.548 128.218 269.851 125.836C271.636 125.284 273.2 124.795 275.144 124.196C271.589 122.098 268.793 121.625 266.012 124.984C262.836 128.833 259.329 132.397 255.98 136.088C256.264 136.388 256.533 136.703 256.817 137.003C260.261 133.785 263.705 130.584 267.149 127.366C267.355 127.555 267.56 127.729 267.766 127.918C263.216 133.88 258.65 139.842 254.1 145.804C250.545 150.473 250.734 150.347 254.194 155C255.348 156.546 255.98 159.211 255.553 161.073C252.709 173.47 251.509 185.994 251.603 198.691C251.635 203.659 250.245 205.268 245.363 205.931C233.34 207.555 221.301 209.069 209.278 210.741C205.502 211.262 203.211 210.032 201.537 206.498C192.31 186.893 184.616 166.719 178.849 145.836C178.297 143.849 178.455 141.404 179.071 139.401C180.508 134.811 182.373 130.363 184.158 125.883C185.438 122.697 187.428 122.066 190.019 124.416C191.599 125.836 192.831 127.839 193.732 129.811C198.503 140.221 203.29 150.647 207.714 161.215C209.389 165.189 211.853 165.946 215.677 165.252C228.189 162.95 231.002 160.047 233.308 147.082C235.267 136.057 240.781 126.782 248.538 118.959C255.048 112.397 262.204 106.467 269.014 100.173C270.594 98.7066 271.7 98.8013 273.295 100.252C278.382 104.89 283.628 109.401 288.952 114.085ZM205.85 193.249C205.486 193.438 205.139 193.628 204.775 193.817C206.671 197.902 208.567 201.972 210.542 206.23C207.84 206.546 205.629 206.814 203.401 207.082C203.448 207.524 203.48 207.965 203.527 208.407C205.155 208.407 206.814 208.596 208.409 208.375C220.211 206.688 232.029 205.032 243.799 203.155C249.66 202.224 251.161 198.407 247.717 192.681C247.606 193.991 247.322 194.858 247.496 195.631C248.301 199.18 246.5 200.852 243.325 201.262C234.161 202.413 224.982 203.344 215.835 204.59C213.307 204.937 212.059 204.054 210.953 202.035C209.357 199.038 207.572 196.167 205.85 193.249ZM239.565 190.379C240.07 190.379 240.576 190.363 241.066 190.363C240.718 183.817 240.386 177.271 240.039 170.726C239.881 170.726 239.723 170.726 239.549 170.726C239.565 177.287 239.565 183.833 239.565 190.379Z" fill="white"/>
                <path d="M295.903 239.748C287.372 239.006 281.005 234.732 276.171 227.823C259.613 204.196 259.677 167.413 276.676 144.18C279.994 139.637 284.449 135.931 288.92 131.262C290.927 134.369 292.301 136.483 293.66 138.596C293.865 138.517 294.071 138.423 294.26 138.344C293.723 136.451 293.17 134.558 292.633 132.666C292.965 132.492 293.297 132.303 293.644 132.129C297.594 136.924 301.544 141.719 306.046 147.192C305.43 147.429 304.846 147.524 304.451 147.839C278.272 168.912 284.275 207.382 311.228 223.281C314.056 224.953 315.225 226.404 314.009 229.621C313.093 232.035 312.682 234.653 312.145 237.192C311.671 239.448 310.754 240.615 308.132 240.032C298.621 237.934 289.979 234.401 283.912 226.246C283.375 225.536 282.237 225.284 281.858 224.59C280.784 223.107 279.947 221.356 278.588 220.221C274.433 216.751 271.131 212.603 270.23 207.334C266.739 186.909 267.481 167.035 279.267 148.927C280.342 147.287 281.447 145.678 282.585 144.085C283.628 142.634 284.718 141.215 285.776 139.779C285.524 139.574 285.271 139.353 285.002 139.148C282.632 142.035 279.915 144.716 277.94 147.855C264.985 168.407 262.789 190.221 270.957 212.997C274.733 223.533 282.506 230.789 291.859 236.53C293.312 237.413 294.497 238.738 295.793 239.842L295.903 239.748Z" fill="white"/>
                <path d="M215.297 129.905C212.722 135.915 210.131 141.924 207.208 148.738C203.527 141.498 200.131 135.11 197.081 128.549C196.481 127.256 196.987 125.237 197.476 123.707C200.952 112.934 204.538 102.208 208.156 91.4826C212.043 79.9369 216.103 77.5552 229.09 79.4953C227.147 85.1893 225.298 90.8202 223.292 96.388C221.048 102.618 221.538 104.29 227.178 107.855C226.009 110.173 224.824 112.508 223.639 114.858C223.987 115.158 224.334 115.442 224.666 115.741C226.341 113.849 227.921 111.877 229.69 110.095C235.378 104.338 241.223 98.7382 246.832 92.9022C248.617 91.0568 250.023 90.8833 252.204 92.1451C256.706 94.7319 261.367 97.0505 266.423 99.7161C263.405 102.177 260.814 104.479 257.986 106.435C257.259 106.94 255.521 106.688 254.637 106.151C251.24 104.022 248.475 104.558 246.105 107.666C239.849 115.836 233.482 123.943 227.399 132.256C224.382 136.372 224.808 138.297 228.411 141.688C232.471 145.489 230.006 155.473 224.003 158.233C221.238 159.511 217.873 160.584 215.029 160.158C213.386 159.905 211.774 156.609 211.032 154.385C210.495 152.729 211.253 150.552 211.664 148.675C213.054 142.476 214.555 136.309 216.008 130.142C215.787 130.047 215.534 129.968 215.297 129.905Z" fill="white"/>
                <path d="M371.77 339.259C374.124 334.984 376.099 331.325 378.137 327.681C379.748 324.795 379.495 322.524 376.762 320.189C367.125 312.035 357.677 303.659 347.961 295.205C353.206 292.729 358.672 292.208 363.839 294.416C369.668 296.909 375.309 300 380.633 303.454C386.747 307.413 392.371 312.145 398.328 316.372C401.345 318.517 402.246 321.167 401.013 324.511C396.858 335.883 398.912 335.536 407.238 340.457C412.325 343.47 415.201 346.404 414.443 353.107C413.858 358.312 415.738 363.864 416.97 369.148C417.444 371.167 419.34 372.823 420.241 374.795C420.888 376.215 421.694 378.817 421.125 379.29C419.024 380.994 416.481 382.492 413.874 383.076C412.878 383.297 410.682 381.088 410.098 379.574C408.644 375.836 408.091 371.735 406.606 368.013C405.595 365.521 404.047 362.839 401.961 361.262C392.071 353.77 381.96 346.64 371.77 339.259Z" fill="white"/>
                <path d="M317.595 222.902C313.488 222.539 311.118 221.735 312.445 217.192C313.44 213.817 311.781 210.899 309.333 208.423C307.61 206.672 305.825 204.874 304.577 202.808C302.507 199.385 299.837 196.924 295.919 196.088C293.233 195.505 291.812 194.085 291.827 191.293C291.875 185.221 291.764 179.133 292.017 173.076C292.112 170.584 293.755 169.306 296.504 169.211C297.863 169.164 299.458 168.407 300.469 167.445C305.288 162.902 309.949 158.186 314.704 153.486C319.744 160.221 319.839 163.028 315.526 169.511C309.901 177.95 310.897 189.637 318.275 197.634C320.787 200.363 321.434 203.107 320.739 206.53C319.649 211.83 318.685 217.177 317.595 222.902Z" fill="white"/>
                <path d="M303.977 273.754C295.872 271.199 292.949 266.025 293.581 260.757C294.008 257.114 292.317 255.032 289.41 253.17C277.245 245.347 265.19 237.366 253.12 229.401C252.33 228.88 251.588 227.95 251.303 227.05C250.181 223.454 248.981 219.842 248.365 216.136C248.143 214.763 249.471 213.123 250.087 211.609C251.398 212.366 253.294 212.792 253.91 213.927C256.09 217.855 259.076 219.196 263.342 218.028C265.901 217.334 267.544 218.06 269.077 220.505C277.64 234.085 288.715 245.095 303.124 252.539C304.087 253.028 305.288 254.338 305.256 255.221C305.019 261.293 304.466 267.366 303.977 273.754Z" fill="white"/>
                <path d="M185.69 241.498C189.972 237.524 194.143 233.596 198.393 229.779C199.009 229.227 199.973 229.006 200.81 228.77C211.727 225.836 222.691 223.044 233.545 219.89C234.983 219.464 236.8 217.303 236.895 215.852C237.179 211.262 240.639 212.334 243.167 211.798C246.2 211.136 246.453 213.486 246.895 215.552C247.116 216.562 247.385 217.571 247.59 218.596C248.839 224.763 246.042 229.353 240.007 231.104C224.777 235.552 209.531 239.968 194.317 244.495C190.857 245.52 187.902 245.662 185.69 241.498Z" fill="white"/>
                <path d="M356.16 223.391C357.709 218.502 358.862 213.707 360.726 209.227C362.638 204.606 370.19 201.956 375.245 203.628C378.626 204.748 381.992 205.899 385.673 207.145C385.578 208.533 385.483 210.473 385.325 212.397C384.82 218.407 382.481 220.442 376.383 221.025C370.427 221.593 364.502 222.603 358.562 223.391C357.819 223.47 357.045 223.391 356.16 223.391Z" fill="white"/>
                <path d="M257.133 171.215C258.902 163.943 258.997 156.893 255.221 149.716C259.613 150.52 260.909 147.855 262.726 145.347C265.554 141.42 268.793 137.713 272.221 134.306C273.027 133.502 275.87 133.596 276.897 134.401C278.698 135.804 278.904 137.744 277.024 140.016C270.467 147.981 266.123 157.161 264.242 167.271C263.437 171.656 261.493 172.555 257.133 171.215Z" fill="white"/>
                <path d="M401.772 230.237C399.528 237.492 397.727 244.937 394.899 251.956C392.055 259.054 388.216 265.741 384.725 272.571C384.282 273.438 383.192 273.991 382.402 274.685C382.102 273.675 381.454 272.618 381.581 271.656C381.865 269.227 382.15 266.703 383.019 264.432C386.889 254.369 390.823 244.338 395.041 234.416C395.926 232.334 398.106 230.789 399.686 228.991C400.366 229.416 401.077 229.826 401.772 230.237Z" fill="white"/>
                <path d="M227.162 97.3344C229.122 91.6246 230.686 87.0347 232.424 81.9874C238.301 84.2587 243.799 86.3722 249.865 88.7224C247.338 90.7729 245.268 92.4606 243.198 94.1325C243.198 93.7224 243.198 93.3123 243.214 92.918C240.513 92.5552 237.621 91.4196 235.188 92.0505C232.629 92.6814 230.496 95.0315 227.162 97.3344Z" fill="white"/>
                <path d="M180.145 158.091C185.991 174.069 191.473 189.085 197.097 204.432C192.168 202.618 179.466 167.981 180.145 158.091Z" fill="white"/>
                <path d="M446.83 356.183C448.189 358.439 441.427 373.013 435.961 380.552C435.597 380.521 435.218 380.473 434.855 380.442C434.981 379.479 434.855 378.36 435.281 377.555C439.01 370.521 442.833 363.565 446.83 356.183Z" fill="white"/>
                <path d="M213.402 321.356C216.324 326.088 219.326 330.757 222.075 335.584C222.565 336.435 221.901 337.934 221.68 340.016C214.966 334.685 214.697 327.808 213.402 321.356Z" fill="white"/>
                <path d="M321.782 343.028C321.213 355.252 320.645 367.492 320.092 379.716C319.618 379.7 319.128 379.685 318.654 379.653C319.238 367.445 319.807 355.252 320.392 343.044C320.834 343.044 321.308 343.028 321.782 343.028Z" fill="white"/>
                <path d="M452.628 183.849C452.628 177.035 452.628 170.221 452.628 163.407C452.786 163.407 452.944 163.391 453.102 163.391C453.102 170.205 453.102 177.019 453.102 183.833C452.944 183.833 452.786 183.833 452.628 183.849Z" fill="white"/>
                <path d="M295.824 239.842C300.612 241.199 305.399 242.571 311.197 244.227C304.293 246.23 299.758 244.685 295.919 239.748C295.903 239.748 295.824 239.842 295.824 239.842Z" fill="white"/>
                <path d="M306.094 304.274C307.358 302.823 308.622 301.372 309.885 299.937C310.486 300.363 311.086 300.789 311.702 301.199C312.145 305.095 312.571 308.975 313.061 313.328C311.228 310.3 309.649 307.713 308.053 305.11C307.405 304.827 306.757 304.543 306.094 304.274Z" fill="white"/>
                <path d="M354.754 331.136C350.299 327.256 345.828 323.36 341.373 319.479C341.689 319.101 341.989 318.722 342.305 318.344C346.855 322.129 351.405 325.915 355.955 329.685C355.544 330.173 355.149 330.662 354.754 331.136Z" fill="white"/>
                <path d="M350.346 303.344C353.633 305.016 356.224 306.751 353.396 310.647C348.15 308.833 347.503 307.397 350.346 303.344Z" fill="white"/>
                <path d="M341.689 295.836C343.521 297.508 345.022 298.864 346.618 300.3C345.275 302.571 343.442 304.322 341.057 302.744C337.707 300.521 341.12 298.454 341.689 295.836Z" fill="white"/>
                <path d="M221.159 252.066C223.655 252.934 225.251 253.502 227.257 254.196C225.993 255.71 225.061 256.83 223.892 258.218C222.992 256.199 222.296 254.637 221.159 252.066Z" fill="white"/>
                <path d="M325.716 269.29C323.646 270.379 321.861 271.262 320.218 272.35C320.092 272.429 321.087 274.795 321.324 274.748C323.188 274.416 324.973 273.754 327.296 273.06C328.117 275.079 327.691 277.334 324.768 278.833C322.003 280.252 319.412 279.29 317.611 276.215C316.094 273.644 316.79 270.394 319.444 268.754C321.861 267.24 324.278 267.05 325.716 269.29Z" fill="white"/>
                <path d="M205.85 193.249C207.572 196.167 209.357 199.054 210.969 202.019C212.059 204.038 213.323 204.921 215.85 204.574C224.998 203.328 234.177 202.397 243.341 201.246C246.532 200.836 248.317 199.164 247.511 195.615C247.338 194.842 247.622 193.975 247.733 192.666C251.177 198.391 249.676 202.208 243.815 203.139C232.044 205.016 220.227 206.688 208.425 208.36C206.829 208.58 205.17 208.391 203.543 208.391C203.496 207.95 203.464 207.508 203.417 207.066C205.629 206.798 207.856 206.546 210.558 206.215C208.583 201.956 206.687 197.886 204.791 193.801C205.139 193.628 205.486 193.438 205.85 193.249Z" fill="black"/>
                <path d="M239.565 190.379C239.565 183.833 239.565 177.271 239.565 170.726C239.723 170.726 239.881 170.726 240.054 170.726C240.402 177.271 240.734 183.817 241.081 190.363C240.576 190.379 240.07 190.379 239.565 190.379Z" fill="black"/>
                </g>
                <defs>
                <linearGradient id="paint0_linear_0_1" x1="212.5" y1="156" x2="66" y2="409" gradientUnits="userSpaceOnUse">
                <stop stop-color="#381D69"/>
                <stop offset="1" stop-color="#EE6773" stop-opacity="0"/>
                </linearGradient>
                <clipPath id="clip0_0_1">
                <rect width="362" height="475" fill="white" transform="translate(140)"/>
                </clipPath>
                </defs>
            </svg>